<svg xmlns="http://www.w3.org/2000/svg" width="32" height="32" viewBox="0 0 32 32" fill="none">
                                        <g clip-path="url(#clip0_2645_794)">
                                        <path d="M13.5947 12.4947C13.6323 12.465 13.6716 12.4384 13.7105 12.4104C13.8096 12.339 13.9131 12.2745 14.0207 12.2172C14.0629 12.1941 14.1038 12.1711 14.1472 12.1508C15.1515 11.663 16.3506 11.8274 17.1867 12.5671C17.2308 12.6056 17.2668 12.6492 17.3085 12.6898C17.3925 12.7708 17.4716 12.8567 17.5451 12.9473C17.5868 12.9994 17.6217 13.0557 17.6576 13.1108C17.7175 13.1976 17.7726 13.2876 17.8223 13.3806C17.8544 13.4413 17.8824 13.5031 17.9099 13.5662C17.951 13.6603 17.9867 13.7569 18.0172 13.8549C18.0375 13.9208 18.0567 13.9856 18.0735 14.0523C18.0965 14.1546 18.1138 14.2578 18.1253 14.3621C18.133 14.4272 18.1426 14.4914 18.1459 14.557C18.15 14.6715 18.147 14.7859 18.1371 14.9001C18.133 14.9561 18.1336 15.0124 18.1264 15.0686C18.1036 15.2328 18.0658 15.3947 18.0139 15.552C18.0139 15.5605 18.0112 15.5684 18.0084 15.5767L19.5177 16.4481L22.3282 11.5758L6.7539 2.58203L3.94336 7.45381L13.2417 12.8213C13.3496 12.7024 13.4679 12.5932 13.5947 12.4947Z" fill="white"/>
                                        <path d="M1.1543 7.78827L5.65116 0L6.62414 0.561834L2.12728 8.3501L1.1543 7.78827Z" fill="white"/>
                                        <path d="M26.4883 17.872L27.0507 16.8979L30.9448 19.1464L30.3824 20.1205L26.4883 17.872Z" fill="white"/>
                                        <path d="M21.0586 16.0343L22.7449 13.1143L26.639 15.363L24.9527 18.283L21.0586 16.0343Z" fill="white"/>
                                        <path d="M16.6707 15.9645C16.6449 15.917 16.6122 15.8736 16.5735 15.8358C16.6622 15.7438 16.7399 15.6417 16.8046 15.5317C17.2688 14.7247 16.9946 13.6947 16.1907 13.2253C16.0751 13.1605 15.9521 13.1098 15.8248 13.0735C15.7872 13.0623 15.7485 13.0554 15.7125 13.0469C15.62 13.0269 15.5259 13.0145 15.4315 13.0099C15.3909 13.0099 15.3511 13.0049 15.3104 13.006C15.1762 13.009 15.0428 13.028 14.913 13.0623C14.3402 13.213 13.8893 13.6551 13.7276 14.2252C13.5659 14.7953 13.7174 15.4082 14.1261 15.8374C14.0877 15.8747 14.0553 15.9176 14.0295 15.9645L6.41278 31.1862C6.27417 31.4642 6.38698 31.8018 6.66474 31.9407C6.9425 32.0793 7.28037 31.9667 7.41898 31.6887L14.7854 16.9504V31.4376C14.7854 31.748 15.0371 31.9997 15.3475 31.9997C15.6579 31.9997 15.9096 31.748 15.9096 31.4376V16.9548L23.2733 31.6887C23.4122 31.9667 23.7497 32.0793 24.0278 31.9407C24.3055 31.8018 24.4183 31.4642 24.2795 31.1862L16.6707 15.9645Z" fill="white"/>
                                        </g>
                                        <defs>
                                        <clipPath id="clip0_2645_794">
                                            <rect width="32" height="32" fill="white"/>
                                        </clipPath>
                                        </defs>
                                    </svg>